<?xml version="1.0" standalone="no"?>
<!DOCTYPE svg PUBLIC "-//W3C//DTD SVG 20010904//EN"
 "http://www.w3.org/TR/2001/REC-SVG-20010904/DTD/svg10.dtd">
<svg version="1.0" xmlns="http://www.w3.org/2000/svg"
 width="512.000000pt" height="512.000000pt" viewBox="0 0 512.000000 512.000000"
 preserveAspectRatio="xMidYMid meet">

<g transform="translate(0.000000,512.000000) scale(0.100000,-0.100000)"
fill="#000000" stroke="none">
<path d="M2341 5110 c-508 -49 -957 -227 -1361 -538 -126 -97 -363 -340 -461
-472 -121 -164 -171 -244 -254 -415 -125 -257 -193 -473 -236 -756 -32 -205
-32 -533 0 -738 43 -283 111 -499 236 -756 131 -268 269 -460 489 -681 221
-220 413 -358 681 -489 257 -125 473 -193 756 -236 183 -28 519 -31 704 -6
321 43 645 150 910 300 713 403 1184 1096 1292 1902 25 185 22 521 -6 704 -43
283 -111 499 -236 756 -131 268 -269 460 -489 681 -221 220 -413 358 -681 489
-257 125 -477 194 -751 235 -160 24 -452 33 -593 20z m1542 -1838 l227 -152 0
-563 0 -562 -772 -510 c-425 -280 -776 -509 -781 -507 -5 1 -355 231 -778 510
l-769 507 3 564 2 564 773 513 773 513 547 -363 c301 -199 649 -431 775 -514z"/>
<path d="M1900 3409 c-288 -191 -526 -352 -528 -357 -1 -4 110 -83 247 -175
l249 -166 269 180 c147 100 274 186 281 193 9 9 12 86 10 342 l-3 330 -525
-347z"/>
<path d="M2690 3421 l0 -330 276 -186 c152 -102 282 -185 289 -183 16 4 495
321 495 328 0 6 -1043 700 -1053 700 -4 0 -7 -148 -7 -329z"/>
<path d="M1260 2555 l0 -256 190 128 c104 70 189 130 189 133 1 5 -353 242
-370 248 -5 2 -9 -108 -9 -253z"/>
<path d="M3675 2690 c-99 -66 -181 -124 -183 -129 -3 -10 357 -256 364 -248 2
2 3 115 2 250 l-3 247 -180 -120z"/>
<path d="M2258 2672 c-87 -59 -158 -109 -158 -112 0 -4 180 -126 301 -203 l29
-19 0 221 c0 122 -3 221 -7 221 -5 -1 -79 -49 -165 -108z"/>
<path d="M2690 2560 l0 -222 29 19 c121 77 301 199 301 203 0 4 -180 126 -301
203 l-29 19 0 -222z"/>
<path d="M1613 2237 l-253 -171 423 -279 c232 -154 473 -313 535 -353 l112
-73 0 337 -1 337 -277 185 c-152 102 -279 186 -282 187 -3 1 -119 -76 -257
-170z"/>
<path d="M2965 2217 l-270 -182 -3 -337 -2 -338 472 313 c260 172 499 331 531
352 46 31 55 41 45 51 -31 29 -477 324 -490 323 -7 0 -134 -82 -283 -182z"/>
</g>
</svg>
